# AST/ASF file generated using VICON BodyLanguage
# -----------------------------------------------
:version 1.10
:name VICON
:units
  mass 1.0
  length 0.45
  angle deg
:documentation
   .ast/.asf automatically generated from VICON data using
   VICON BodyBuilder and BodyLanguage model FoxedUp or BRILLIANT.MOD
:root
   order TX TY TZ RX RY RZ
   axis XYZ
   position 0 0 0  
   orientation 0 0 0 
:bonedata
  begin
     id 1 
     name lhipjoint
     direction 0.702568 -0.596508 0.388042 
     length 2.56661 
     axis 0 0 0  XYZ
  end
  begin
     id 2 
     name lfemur
     direction 0.34202 -0.939693 0  
     length 6.58374  
     axis 0 0 20  XYZ
    dof rx ry rz
    limits (-160.0 20.0)
           (-70.0 70.0)
           (-60.0 70.0)
  end
  begin
     id 3 
     name ltibia
     direction 0.34202 -0.939693 0   
     length 6.62538   
     axis 0 0 20   XYZ
    dof rx
    limits (-10.0 170.0)
  end
  begin
     id 4 
     name lfoot
     direction 0.10455 -0.287249 0.952133   
     length 2.26699   
     axis -90 7.62852e-016 20   XYZ
    dof rx rz
    limits (-45.0 90.0)
           (-70.0 20.0)
  end
  begin
     id 5 
     name ltoes
     direction 1.53572e-011 -4.22322e-011 1   
     length 1.12949   
     axis -90 7.62852e-016 20   XYZ
    dof rx
    limits (-90.0 20.0)
  end
  begin
     id 6 
     name rhipjoint
     direction -0.728055 -0.574632 0.373811   
     length 2.66432  
     axis 0 0 0  XYZ 
  end
  begin
     id 7 
     name rfemur
     direction -0.34202 -0.939693 0   
     length 6.66732   
     axis 0 0 -20   XYZ
    dof rx ry rz
    limits (-160.0 20.0)
           (-70.0 70.0)
           (-70.0 60.0)
  end
  begin
     id 8 
     name rtibia
     direction -0.34202 -0.939693 0   
     length 6.59288   
     axis 0 0 -20   XYZ
    dof rx
    limits (-10.0 170.0)
 end
 begin
     id 9 
     name rfoot
     direction -0.119193 -0.327479 0.93731   
     length 2.38061  
     axis -90 -7.62852e-016 -20   XYZ
    dof rx rz
    limits (-45.0 90.0)
           (-20.0 70.0)
  end
  begin
     id 10 
     name rtoes
     direction -1.53547e-011 -4.21827e-011 1   
     length 1.17899   
     axis -90 -7.62852e-016 -20   XYZ
    dof rx
    limits (-90.0 20.0)
  end
  begin
     id 11 
     name lowerback
     direction -0.000416114 0.999912 -0.0132284   
     length 2.12109   
     axis 0 0 0   XYZ
    dof rx ry rz
    limits (-20.0 45.0)
           (-30.0 30.0)
           (-30.0 30.0)
  end
  begin
     id 12 
     name upperback
     direction -0.00136371 0.99809 0.0617608   
     length 2.10067   
     axis 0 0 0   XYZ
    dof rx ry rz
    limits (-20.0 45.0)
           (-30.0 30.0)
           (-30.0 30.0)
  end
  begin
     id 13 
     name thorax
     direction -3.43026e-005 0.997776 0.0666515   
     length 2.10618   
     axis 0 0 0   XYZ
    dof rx ry rz
    limits (-20.0 45.0)
           (-30.0 30.0)
           (-30.0 30.0)
  end
  begin
     id 14 
     name lowerneck
     direction 0.0398646 0.998418 0.0396592   
     length 1.83817   
     axis 0 0 0   XYZ
    dof rx ry rz
    limits (-20.0 45.0)
           (-30.0 30.0)
           (-30.0 30.0)
  end
  begin
     id 15 
     name upperneck
     direction -0.0367268 0.961527 -0.272244   
     length 1.81975   
     axis 0 0 0   XYZ
    dof rx ry rz
    limits (-20.0 45.0)
           (-30.0 30.0)
           (-30.0 30.0)
  end
  begin
     id 16
     name head
     direction -0.0182665 0.99536 -0.0944669  
     length 1.86026  
     axis 0 0 0   XYZ
    dof rx ry rz
    limits (-20.0 45.0)
           (-30.0 30.0)
           (-30.0 30.0)
  end
  begin
     id 17 
     name lclavicle
     direction 0.924239 0.361045 0.124212  
     length 3.26878  
     axis 0 0 0   XYZ
    dof ry rz
    limits (-20.0 10.0)
           (0.0 20.0)
  end
  begin
     id 18 
     name lhumerus
     direction 1 -4.48968e-011 -2.56583e-027   
     length 4.58538   
     axis 180 -30 -90   XYZ
    dof rx ry rz
    limits (-60.0 90.0)
           (-90.0 90.0)
           (-90.0 90.0)
  end
  begin
     id 19
     name lradius
     direction 1 -4.4898e-011 -5.50375e-027   
     length 2.68935   
     axis 180 -30 -90   XYZ
    dof rx
    limits (-10.0 170.0)
  end
  begin
     id 20
     name lwrist
     direction 1 -4.48939e-011 -1.48955e-026   
     length 1.34468   
     axis 9.0955e-015 90 90   XYZ
    dof ry
    limits (-180.0 0.0)
 end
  begin
     id 21 
     name lhand
     direction 1 -4.48936e-011 -2.97907e-026   
     length 0.585058   
     axis 1.90115e-014 90 90   XYZ
    dof rx rz
    limits (-90.0 90.0)
           (-45.0 45.0)
  end
  begin
     id 22 
     name lfingers
     direction 1 -4.49082e-011 -5.96235e-026   
     length 0.471689   
     axis 3.80223e-014 90 90   XYZ
    dof rx
    limits (0.0 90.0)
  end
  begin
     id 23
     name lthumb
     direction 0.707107 -6.3489e-011 0.707107   
     length 0.677253   
     axis -90 45 -3.84942e-014   XYZ
    dof rx rz
    limits (-45.0 45.0)
           (-45.0 45.0)
  end
  begin
     id 24 
     name rclavicle
     direction -0.923098 0.371783 0.0983239   
     length 3.19656  
     axis 0 0 0   XYZ 
    dof ry rz
    limits (-10.0 20.0)
           (-20.0 0.0)
  end
  begin
     id 25 
     name rhumerus
     direction -1 -4.48976e-011 -2.5492e-027  
     length 4.4745   
     axis 180 30 90   XYZ
    dof rx ry rz
    limits (-90.0 60.0)
           (-90.0 90.0)
           (-90.0 90.0)
  end
  begin
     id 26 
     name rradius
     direction -1 -4.48941e-011 -4.36555e-027   
     length 2.93896   
     axis 180 30 90   XYZ
    dof rx
    limits (-10.0 170.0)
  end
  begin
     id 27 
     name rwrist
     direction -1 -4.49044e-011 -1.49032e-026   
     length 1.46948   
     axis 9.0955e-015 -90 -90   XYZ
    dof ry
    limits (-180.0 0.0)
  end
  begin
     id 28
     name rhand
     direction -1 -4.48826e-011 -2.97749e-026   
     length 0.405092   
     axis 1.90115e-014 -90 -90   XYZ
    dof rx rz
    limits (-90.0 90.0)
           (-45.0 45.0)
  end
  begin
     id 29
     name rfingers
     direction -1 -4.49209e-011 -5.96602e-026   
     length 0.326596   
     axis 3.80223e-014 -90 -90   XYZ
    dof rx
    limits (0.0 90.0)
  end
  begin
     id 30
     name rthumb
     direction -0.707107 -6.34776e-011 0.707107   
     length 0.468928   
     axis -90 -45 3.84942e-014   XYZ
    dof rx rz
    limits (-45.0 45.0)
           (-45.0 45.0)
  end
:hierarchy
  begin
    root lhipjoint rhipjoint lowerback
    lhipjoint lfemur
    lfemur ltibia
    ltibia lfoot
    lfoot ltoes
    rhipjoint rfemur
    rfemur rtibia
    rtibia rfoot
    rfoot rtoes
    lowerback upperback
    upperback thorax
    thorax lowerneck lclavicle rclavicle
    lowerneck upperneck
    upperneck head
    lclavicle lhumerus
    lhumerus lradius
    lradius lwrist
    lwrist lhand lthumb
    lhand lfingers
    rclavicle rhumerus
    rhumerus rradius
    rradius rwrist
    rwrist rhand rthumb
    rhand rfingers
  end

#!OML:ASF H:\Punching\Project 1\Capture day 1\Session 1\female.ASF
:FULLY-SPECIFIED
:DEGREES
1
root 0.975502 15.7466 6.59877 9.26871 -4.36491 -3.12998
lowerback -6.59658 -0.879997 3.6141
upperback -8.32104 -1.26463 1.0211
thorax -5.01701 -0.808684 -0.983854
lowerneck -10.4394 3.32465 9.02921
upperneck 36.7374 4.46738 -5.16656
head 14.8052 2.47554 -3.07365
rclavicle 8.29926e-015 -8.29926e-015
rhumerus -41.1773 -7.60057 -76.031
rradius 21.1459
rwrist 20.0357
rhand -10.2585 -7.79047
rfingers 7.12502
rthumb 15.7347 -37.1708
lclavicle 8.29926e-015 -8.29926e-015
lhumerus -45.4886 6.17823 80.8418
lradius 31.3019
lwrist -20.1536
lhand -5.8733 13.7008
lfingers 7.12502
lthumb 19.9542 42.6963
rfemur -9.43138 13.4998 16.5875
rtibia 17.6328
rfoot -12.9976 -24.8464
rtoes -3.09734
lfemur -10.6329 -12.8979 -12.919
ltibia 22.2148
lfoot -18.3663 22.6915
ltoes -1.37538
2
root 0.97205 15.7459 6.59641 9.30813 -4.34807 -3.13561
lowerback -6.60507 -0.871822 3.61894
upperback -8.29538 -1.25512 1.01209
thorax -4.98471 -0.803687 -0.996387
lowerneck -10.4705 3.31379 9.03272
upperneck 36.6729 4.44428 -5.1648
head 14.7791 2.46499 -3.07503
rclavicle 2.44257e-014 -1.18277e-014
rhumerus -41.1338 -7.79868 -75.7963
rradius 21.2305
rwrist 19.5145
rhand -9.75945 -8.55582
rfingers 7.12502
rthumb 16.2153 -37.8977
lclavicle 2.44257e-014 -1.18277e-014
lhumerus -45.3853 6.07801 80.976
lradius 31.3179
lwrist -19.9894
lhand -5.95602 13.6995
lfingers 7.12502
lthumb 19.8746 42.7033
rfemur -9.4407 13.5335 16.5891
rtibia 17.5661
rfoot -13.0147 -24.8501
rtoes -2.9049
lfemur -10.7175 -12.966 -12.8804
ltibia 22.2675
lfoot -18.3943 22.7381
ltoes -1.33391
3
root 0.968799 15.7463 6.59573 9.3261 -4.32326 -3.17779
lowerback -6.53394 -0.878833 3.64264
upperback -8.30997 -1.26071 1.03333
thorax -5.04072 -0.808007 -0.985893
lowerneck -10.4718 3.30345 9.02513
upperneck 36.643 4.43016 -5.16729
head 14.7632 2.45703 -3.07609
rclavicle 3.20416e-014 -1.27719e-014
rhumerus -41.2422 -7.89884 -75.5318
rradius 21.1364
rwrist 19.7687
rhand -10.1723 -8.19614
rfingers 7.12502
rthumb 15.8177 -37.5699
lclavicle 3.20416e-014 -1.27719e-014
lhumerus -45.4252 6.11225 81.0358
lradius 31.453
lwrist -19.9565
lhand -5.92391 13.7251
lfingers 7.12502
lthumb 19.9055 42.7257
rfemur -9.46874 13.5678 16.6434
rtibia 17.5907
rfoot -13.109 -24.8908
rtoes -2.59542
lfemur -10.7231 -12.9756 -12.8099
ltibia 22.2279
lfoot -18.3792 22.7237
ltoes -1.30139
4
root 0.966338 15.7493 6.59482 9.34891 -4.31547 -3.15839
lowerback -6.52021 -0.880107 3.61993
upperback -8.289 -1.26195 1.02367
thorax -5.02548 -0.807192 -0.983404
lowerneck -10.4782 3.29229 9.0202
upperneck 36.5751 4.40757 -5.15709
head 14.7294 2.44679 -3.07243
rclavicle -1.40019e-014 3.77691e-015
rhumerus -41.2325 -8.02399 -75.3493
rradius 21.154
rwrist 19.5724
rhand -10.177 -8.21852
rfingers 7.12502
rthumb 15.8132 -37.5927
lclavicle -1.40019e-014 3.77691e-015
lhumerus -45.3792 6.06752 81.1322
lradius 31.5067
lwrist -19.8815
lhand -5.9673 13.7182
lfingers 7.12502
lthumb 19.8638 42.7231
rfemur -9.51488 13.5437 16.6292
rtibia 17.5987
rfoot -13.015 -24.8894
rtoes -2.88841
lfemur -10.7428 -13.0053 -12.8136
ltibia 22.2035
lfoot -18.3583 22.7526
ltoes -1.30091
5
root 0.963436 15.7505 6.59361 9.37445 -4.30714 -3.16497
lowerback -6.4913 -0.881746 3.6147
upperback -8.2783 -1.26281 1.02581
thorax -5.03004 -0.807173 -0.977887
lowerneck -10.4874 3.2829 9.01787
upperneck 36.5178 4.3889 -5.15174
head 14.702 2.43808 -3.07096
rclavicle 2.33324e-014 -2.18663e-014
rhumerus -41.2536 -8.08387 -75.1905
rradius 21.1768
rwrist 19.4038
rhand -10.2309 -8.24899
rfingers 7.12502
rthumb 15.7612 -37.6273
lclavicle 2.33324e-014 -2.18663e-014
lhumerus -45.3559 6.048 81.2168
lradius 31.5808
lwrist -19.8134
lhand -5.97771 13.7215
lfingers 7.12502
lthumb 19.8538 42.7274
rfemur -9.56018 13.5506 16.6413
rtibia 17.6192
rfoot -13.0198 -24.9
rtoes -2.86839
lfemur -10.7603 -13.0243 -12.7847
ltibia 22.1679
lfoot -18.3324 22.7685
ltoes -1.30153
